<?xml version="1.0" encoding="UTF-8" standalone="no"?>
<svg
   xmlns:dc="http://purl.org/dc/elements/1.1/"
   xmlns:cc="http://creativecommons.org/ns#"
   xmlns:rdf="http://www.w3.org/1999/02/22-rdf-syntax-ns#"
   xmlns:svg="http://www.w3.org/2000/svg"
   xmlns="http://www.w3.org/2000/svg"
   xmlns:sodipodi="http://sodipodi.sourceforge.net/DTD/sodipodi-0.dtd"
   xmlns:inkscape="http://www.inkscape.org/namespaces/inkscape"
   version="1.1"
   id="svg1464"
   width="1800"
   height="464"
   viewBox="0 0 1800 464"
   sodipodi:docname="logo_fábrica_digital_mixto_geométrico.svg"
   inkscape:version="1.0.2-2 (e86c870879, 2021-01-15)">
  <sodipodi:namedview
     pagecolor="#ffffff"
     bordercolor="#666666"
     borderopacity="1"
     objecttolerance="10"
     gridtolerance="10"
     guidetolerance="10"
     inkscape:pageopacity="0"
     inkscape:pageshadow="2"
     inkscape:window-width="3440"
     inkscape:window-height="1377"
     id="namedview965"
     showgrid="false"
     inkscape:zoom="0.565"
     inkscape:cx="900"
     inkscape:cy="232"
     inkscape:window-x="-8"
     inkscape:window-y="-8"
     inkscape:window-maximized="1"
     inkscape:current-layer="layer1" />
  <metadata
     id="metadata36">
    <rdf:RDF>
      <cc:Work
         rdf:about="">
        <dc:format>image/svg+xml</dc:format>
        <dc:type
           rdf:resource="http://purl.org/dc/dcmitype/StillImage" />
        <dc:title></dc:title>
      </cc:Work>
    </rdf:RDF>
  </metadata>
  <defs
     id="defs1468">
    <rect
       x="686.53021"
       y="254.22505"
       width="2.5857873"
       height="26.165224"
       id="rect34874" />
  </defs>
  <style
     id="style26">
      @import url(&quot;https://fonts.googleapis.com/css2?family=Roboto&quot;);
  </style>
  <g
     id="layer1">
    <path
       id="path1564-5"
       style="fill:#fbbc05;fill-opacity:1;stroke:none;stroke-width:1px;stroke-linecap:butt;stroke-linejoin:miter;stroke-opacity:1"
       d="M 81.9375,182.02539 1.8613281,320.58789 82.910156,457.52539 240.98633,460.01758 319.74414,321.34766 241.5293,184.38672 Z m 80.53711,79.26563 a 59.425114,58.851494 0 0 1 59.42578,58.85156 59.425114,58.851494 0 0 1 -59.42578,58.85156 59.425114,58.851494 0 0 1 -59.42578,-58.85156 59.425114,58.851494 0 0 1 59.42578,-58.85156 z" />
    <path
       style="fill:#34a853;fill-opacity:1;stroke:none;stroke-width:1px;stroke-linecap:butt;stroke-linejoin:miter;stroke-opacity:1"
       d="M 160.8737,57.415484 163.79823,147.50859 264.66316,93.611556 261.37744,4.477589 Z"
       id="path1566-6" />
    <g
       aria-label="FábricaDigital"
       id="text5086-9"
       style="font-style:normal;font-variant:normal;font-weight:normal;font-stretch:normal;font-size:213.333px;line-height:1.25;font-family:Roboto;-inkscape-font-specification:Roboto;letter-spacing:1.5px;fill:#ffffff;fill-opacity:1">
      <path
         d="m 482.70586,341.01279 h -63.64573 v 66.97906 H 399.06016 V 256.32543 h 93.95819 v 16.4583 h -73.95822 v 51.87492 h 63.64573 z"
         id="path38"
         style="fill:#ffffff" />
      <path
         d="m 581.49737,407.99185 q -1.66666,-3.33333 -2.70833,-11.87498 -13.43747,13.95831 -32.08328,13.95831 -16.66664,0 -27.39579,-9.37498 -10.62498,-9.47915 -10.62498,-23.9583 0,-17.60414 13.33331,-27.29162 13.43748,-9.79165 37.70827,-9.79165 h 18.74997 v -8.85415 q 0,-10.10416 -6.04165,-16.04165 -6.04166,-6.04165 -17.81247,-6.04165 -10.31249,0 -17.29164,5.20832 -6.97916,5.20833 -6.97916,12.60415 h -19.37497 q 0,-8.43749 5.93749,-16.24998 6.04166,-7.91665 16.24998,-12.49998 10.31248,-4.58332 22.60413,-4.58332 19.47913,0 30.52078,9.79165 11.04165,9.68748 11.45832,26.77079 v 51.87492 q 0,15.52081 3.95832,24.68746 v 1.66666 z m -31.97911,-14.68747 q 9.06248,0 17.18747,-4.6875 8.12499,-4.68749 11.77081,-12.18748 V 353.30444 H 563.3724 q -35.41661,0 -35.41661,20.72913 0,9.06249 6.04166,14.16665 6.04166,5.10416 15.52081,5.10416 z m 17.81247,-145.31227 h 23.3333 l -27.91663,30.62495 h -15.52081 z"
         id="path40"
         style="fill:#ffffff" />
      <path
         d="m 724.87214,352.88777 q 0,25.8333 -11.87498,41.56244 -11.87498,15.62497 -31.87495,15.62497 -21.35413,0 -33.02078,-15.10414 l -0.9375,13.02081 H 629.45562 V 247.99211 h 19.27081 v 59.6874 q 11.66665,-14.47914 32.18745,-14.47914 20.5208,0 32.18744,15.52081 11.77082,15.52081 11.77082,42.49993 z m -19.2708,-2.18749 q 0,-19.68747 -7.60416,-30.41662 -7.60415,-10.72915 -21.87496,-10.72915 -19.06247,0 -27.39579,17.7083 v 48.74993 q 8.85415,17.7083 27.60412,17.7083 13.85414,0 21.56247,-10.72915 7.70832,-10.72915 7.70832,-32.29161 z"
         id="path42"
         style="fill:#ffffff" />
      <path
         d="m 805.12202,312.57534 q -4.37499,-0.72917 -9.47915,-0.72917 -18.9583,0 -25.72913,16.14581 v 79.99987 h -19.2708 V 295.2837 h 18.74997 l 0.3125,13.02081 q 9.47915,-15.10414 26.87496,-15.10414 5.62499,0 8.54165,1.45833 z"
         id="path44"
         style="fill:#ffffff" />
      <path
         d="M 845.26779,407.99185 H 825.99698 V 295.2837 h 19.27081 z m -20.8333,-142.60394 q 0,-4.68749 2.81249,-7.91665 2.91666,-3.22916 8.54165,-3.22916 5.625,0 8.54166,3.22916 2.91666,3.22916 2.91666,7.91665 0,4.6875 -2.91666,7.81249 -2.91666,3.125 -8.54166,3.125 -5.62499,0 -8.54165,-3.125 -2.81249,-3.12499 -2.81249,-7.81249 z"
         id="path46"
         style="fill:#ffffff" />
      <path
         d="m 922.80933,394.34604 q 10.31249,0 18.02081,-6.24999 7.70832,-6.24999 8.54165,-15.62497 h 18.22914 q -0.52083,9.68748 -6.66666,18.43747 -6.14582,8.74998 -16.45831,13.95831 -10.20831,5.20832 -21.66663,5.20832 -23.02079,0 -36.66661,-15.31247 -13.54164,-15.41665 -13.54164,-42.08327 v -3.22916 q 0,-16.45831 6.04166,-29.27079 6.04165,-12.81248 17.29164,-19.8958 11.35414,-7.08332 26.77079,-7.08332 18.9583,0 31.45828,11.35415 12.60415,11.35415 13.43748,29.47912 h -18.22914 q -0.83333,-10.93749 -8.33332,-17.91664 -7.39582,-7.08332 -18.3333,-7.08332 -14.68748,0 -22.81247,10.62498 -8.02082,10.52082 -8.02082,30.52078 v 3.64583 q 0,19.47914 8.02082,29.99995 8.02082,10.52082 22.91663,10.52082 z"
         id="path48"
         style="fill:#ffffff" />
      <path
         d="m 1060.3508,407.99185 q -1.6667,-3.33333 -2.7084,-11.87498 -13.4374,13.95831 -32.0832,13.95831 -16.6667,0 -27.39583,-9.37498 -10.62499,-9.47915 -10.62499,-23.9583 0,-17.60414 13.33332,-27.29162 13.4375,-9.79165 37.7083,-9.79165 h 18.7499 v -8.85415 q 0,-10.10416 -6.0416,-16.04165 -6.0417,-6.04165 -17.8125,-6.04165 -10.3125,0 -17.2916,5.20832 -6.9792,5.20833 -6.9792,12.60415 h -19.37495 q 0,-8.43749 5.93749,-16.24998 6.04166,-7.91665 16.24996,-12.49998 10.3125,-4.58332 22.6041,-4.58332 19.4792,0 30.5208,9.79165 11.0417,9.68748 11.4583,26.77079 v 51.87492 q 0,15.52081 3.9584,24.68746 v 1.66666 z m -31.9791,-14.68747 q 9.0624,0 17.1874,-4.6875 8.125,-4.68749 11.7708,-12.18748 v -23.12496 h -15.1041 q -35.4166,0 -35.4166,20.72913 0,9.06249 6.0416,14.16665 6.0417,5.10416 15.5209,5.10416 z"
         id="path50"
         style="fill:#ffffff" />
      <path
         d="M 1111.3299,407.99185 V 256.32543 h 42.8124 q 19.7916,0 35,8.74998 15.2083,8.74999 23.4374,24.8958 8.3333,16.1458 8.4375,37.08327 v 9.68749 q 0,21.45829 -8.3333,37.6041 -8.2292,16.14581 -23.6458,24.79163 -15.3125,8.64582 -35.7291,8.85415 z m 19.9999,-135.20812 v 118.85398 h 21.0417 q 23.1249,0 35.9374,-14.37498 12.9167,-14.37497 12.9167,-40.93743 v -8.85415 q 0,-25.83329 -12.1875,-40.10411 -12.0833,-14.37497 -34.375,-14.58331 z"
         id="path52"
         style="fill:#ffffff" />
      <path
         d="m 1270.6421,407.99185 h -19.2708 V 295.2837 h 19.2708 z m -20.8333,-142.60394 q 0,-4.68749 2.8125,-7.91665 2.9167,-3.22916 8.5417,-3.22916 5.625,0 8.5416,3.22916 2.9167,3.22916 2.9167,7.91665 0,4.6875 -2.9167,7.81249 -2.9166,3.125 -8.5416,3.125 -5.625,0 -8.5417,-3.125 -2.8125,-3.12499 -2.8125,-7.81249 z"
         id="path54"
         style="fill:#ffffff" />
      <path
         d="m 1298.3921,350.70028 q 0,-26.35413 12.1875,-41.87494 12.1875,-15.62497 32.2916,-15.62497 20.625,0 32.1874,14.58331 l 0.9375,-12.49998 h 17.6042 v 109.99982 q 0,21.87497 -13.0208,34.47911 -12.9167,12.60415 -34.7916,12.60415 -12.1875,0 -23.8542,-5.20832 -11.6666,-5.20833 -17.8124,-14.27081 l 9.9999,-11.56249 q 12.3959,15.31248 30.3125,15.31248 14.0625,0 21.875,-7.91665 7.9166,-7.91666 7.9166,-22.29164 v -9.68748 q -11.5625,13.33331 -31.5624,13.33331 -19.7917,0 -32.0833,-15.93747 -12.1875,-15.93748 -12.1875,-43.43743 z m 19.375,2.18749 q 0,19.06247 7.8125,29.99996 7.8124,10.83331 21.8749,10.83331 18.2292,0 26.7708,-16.56247 v -51.45825 q -8.8541,-16.14581 -26.5624,-16.14581 -14.0625,0 -21.9792,10.93748 -7.9166,10.93748 -7.9166,32.39578 z"
         id="path56"
         style="fill:#ffffff" />
      <path
         d="m 1445.1002,407.99185 h -19.2708 V 295.2837 h 19.2708 z m -20.8333,-142.60394 q 0,-4.68749 2.8125,-7.91665 2.9167,-3.22916 8.5417,-3.22916 5.625,0 8.5416,3.22916 2.9167,3.22916 2.9167,7.91665 0,4.6875 -2.9167,7.81249 -2.9166,3.125 -8.5416,3.125 -5.625,0 -8.5417,-3.125 -2.8125,-3.12499 -2.8125,-7.81249 z"
         id="path58"
         style="fill:#ffffff" />
      <path
         d="m 1503.5793,267.99208 v 27.29162 h 21.0416 v 14.89581 h -21.0416 v 69.89572 q 0,6.77082 2.8125,10.20832 2.8125,3.33332 9.5833,3.33332 3.3333,0 9.1667,-1.24999 v 15.62497 q -7.6042,2.08333 -14.7917,2.08333 -12.9166,0 -19.4791,-7.81249 -6.5625,-7.81248 -6.5625,-22.18746 v -69.89572 h -20.5208 V 295.2837 h 20.5208 v -27.29162 z"
         id="path60"
         style="fill:#ffffff" />
      <path
         d="m 1618.2041,407.99185 q -1.6667,-3.33333 -2.7083,-11.87498 -13.4375,13.95831 -32.0833,13.95831 -16.6667,0 -27.3958,-9.37498 -10.625,-9.47915 -10.625,-23.9583 0,-17.60414 13.3333,-27.29162 13.4375,-9.79165 37.7083,-9.79165 h 18.75 v -8.85415 q 0,-10.10416 -6.0417,-16.04165 -6.0416,-6.04165 -17.8125,-6.04165 -10.3124,0 -17.2916,5.20832 -6.9792,5.20833 -6.9792,12.60415 h -19.3749 q 0,-8.43749 5.9375,-16.24998 6.0416,-7.91665 16.2499,-12.49998 10.3125,-4.58332 22.6042,-4.58332 19.4791,0 30.5208,9.79165 11.0416,9.68748 11.4583,26.77079 v 51.87492 q 0,15.52081 3.9583,24.68746 v 1.66666 z m -31.9791,-14.68747 q 9.0625,0 17.1875,-4.6875 8.1249,-4.68749 11.7708,-12.18748 v -23.12496 h -15.1042 q -35.4166,0 -35.4166,20.72913 0,9.06249 6.0417,14.16665 6.0416,5.10416 15.5208,5.10416 z"
         id="path62"
         style="fill:#ffffff" />
      <path
         d="M 1687.0998,407.99185 H 1667.829 V 247.99211 h 19.2708 z"
         id="path64"
         style="fill:#ffffff" />
    </g>
  </g>
</svg>
